<svg xmlns="http://www.w3.org/2000/svg" xmlns:xlink="http://www.w3.org/1999/xlink" width="16" height="16" data-name="Layer 186"><defs><symbol id="g" data-name="( openFolder_back )" viewBox="0 0 13 11"><path d="M0 0v11h10.98c.55 0 1-.45 1-1V6c.55 0 1-.45 1-1V1c.01-.75-.39-.99-.99-1z" data-name="folder" style="fill:#fff"/></symbol><symbol id="c" data-name="( openFolder_backShadows )" viewBox="0 0 13 11"><path d="M0 0v11h11c.55 0 1-.45 1-1V6c.55 0 1-.45 1-1V1c0-.75-.41-.99-1-1z" data-name="folder_shadow" style="isolation:isolate;opacity:.3"/></symbol><symbol id="h" data-name="( openFolder_flap )" viewBox="0 0 7 16"><path d="M7 2.95c0-.6-.37-1.14-.93-1.36L0 0v14l6 2c1 0 1-1 1-1z" data-name="flap" style="fill:#fff"/></symbol><symbol id="d" data-name="( openFolder_flapShadow )" viewBox="0 0 7.91 11"><path d="M0 1.31V11h7.91V3.39C7.91.51 5.89.63 3.81.63S0 1.31 0 1.31" style="opacity:.6"/><path d="M0 0h7.91v11H0z" style="opacity:0"/></symbol><symbol id="i" data-name="-folder-back-pink" viewBox="0 0 13.02 11"><g style="mask:url(#a)"><path d="M.02 0h13v11h-13z" style="fill:#ff13c0"/></g><use xlink:href="#c" width="13" height="11"/><use xlink:href="#d" width="7.91" height="11" transform="translate(.02)"/></symbol><symbol id="k" data-name="-folder-flap-pink" viewBox="0 0 7 16"><g style="mask:url(#e)"><path d="M0 0h7v16H0z" style="fill:#ff13c0"/></g></symbol><mask id="a" width="13.02" height="11" x="0" y="0" data-name="mask" maskUnits="userSpaceOnUse"><use xlink:href="#g" width="13" height="11" transform="translate(.02)"/></mask><mask id="e" width="7" height="16" x="0" y="0" data-name="mask-1" maskUnits="userSpaceOnUse"><use xlink:href="#h" width="7" height="16"/></mask><linearGradient id="j" x1="145.24" x2="147.98" y1="-276.89" y2="-276.89" gradientTransform="matrix(3.78 0 0 -3.78 -548.96 -1039.51)" gradientUnits="userSpaceOnUse"><stop offset=".69"/><stop offset="1" stop-opacity="0"/></linearGradient></defs><use xlink:href="#i" width="13.02" height="11"/><path d="M3 2h13v12H3z"/><path d="M6.75 8.25v-2h-1.5v2h-1.5v-5.5h5.5v1h2v3h-2v1.5z" style="fill:#0ff"/><path d="M9 3v1h2v2.5H9V8H7V6H5v2H4V3zm.5-.5h-6v6h2v-2h1v2h3V7h2V3.5h-2z"/><path d="M10.75 10.25v-2h-1.5v-2h2v-2h-2v-1.5h6v5.5h-1.5v2z" style="fill:#0f0"/><path d="M15 3v5h-1.5v2H11V8H9.5V6.5h2V4h-2V3zm.5-.5H9v2h2V6H9v2.5h1.5v2H14v-2h1.5z"/><path d="M9.15 13.25v-1h-2v-3h2v-1.5h2v2h2v-2h2.1v5.5z" style="fill:#e3ff00"/><path d="M15 8v5H9.4v-1h-2V9.5h2V8h1.5v2h2.5V8zm.5-.5h-2.6v2h-1.5v-2H8.9V9h-2v3.5h2v1h6.6z"/><path d="M3.75 13.25v-5.5h1.5v-2h2v2h2v2h-2v2h2v1.5z" style="fill:#ff2020"/><path d="M7 6v2h2v1.5H7V12h2v1H4V8h1.5V6zm.5-.5H5v2H3.5v6h6v-2h-2V10h2V7.5h-2z"/><path d="m0 0 1 2h10v12H0z" data-name="icon_shadow" style="fill:url(#j)"/><use xlink:href="#k" width="7" height="16"/></svg>