<svg xmlns="http://www.w3.org/2000/svg" xmlns:xlink="http://www.w3.org/1999/xlink" width="16" height="16" data-name="Layer 8 copy 44"><defs><symbol id="a" data-name="( openFolder_back )" viewBox="0 0 13 11"><path d="M0 0v11h10.98c.55 0 1-.45 1-1V6c.55 0 1-.45 1-1V1c.01-.75-.39-.99-.99-1z" data-name="folder" style="fill:#fff"/></symbol><symbol id="c" data-name="( openFolder_backShadows )" viewBox="0 0 13 11"><path d="M0 0v11h11c.55 0 1-.45 1-1V6c.55 0 1-.45 1-1V1c0-.75-.41-.99-1-1z" data-name="folder_shadow" style="isolation:isolate;opacity:.3"/></symbol><symbol id="e" data-name="( openFolder_flap )" viewBox="0 0 7 16"><path d="M7 2.95c0-.6-.37-1.14-.93-1.36L0 0v14l6 2c1 0 1-1 1-1z" data-name="flap" style="fill:#fff"/></symbol><symbol id="d" data-name="( openFolder_flapShadow )" viewBox="0 0 7.91 11"><path d="M0 1.31V11h7.91V3.39C7.91.51 5.89.63 3.81.63S0 1.31 0 1.31" style="opacity:.6"/><path d="M0 0h7.91v11H0z" style="opacity:0"/></symbol><symbol id="h" data-name="-folder-back-orange" viewBox="0 0 13.02 11"><g style="mask:url(#b)"><path d="M.02 0h13v11h-13z" style="fill:#ff6700"/></g><use xlink:href="#c" width="13" height="11"/><use xlink:href="#d" width="7.91" height="11" transform="translate(.02)"/></symbol><symbol id="j" data-name="-folder-flap-orange" viewBox="0 0 7 16"><g style="mask:url(#f)"><path d="M0 0h7v16H0z" style="fill:#ff6700"/></g></symbol><symbol id="i" data-name="-icon-shadow 2" viewBox="0 0 11 14"><path d="m0 0 1 2h10v12H0z" data-name="icon_shadow" style="fill:url(#g)"/></symbol><mask id="b" width="13.02" height="11" x="0" y="0" data-name="mask" maskUnits="userSpaceOnUse"><use xlink:href="#a" width="13" height="11" transform="translate(.02)"/></mask><mask id="f" width="7" height="16" x="0" y="0" data-name="mask-1" maskUnits="userSpaceOnUse"><use xlink:href="#e" width="7" height="16"/></mask><linearGradient id="g" x1="6041.82" x2="6044.55" y1="10203.98" y2="10203.98" gradientTransform="matrix(3.78 0 0 -3.78 -22835.21 38573.21)" gradientUnits="userSpaceOnUse"><stop offset=".69"/><stop offset="1" stop-opacity="0"/></linearGradient></defs><use xlink:href="#h" width="13.02" height="11"/><g data-name="Layer 75 copy 4"><path d="M4.03 14C2.9 14 2 13.1 2 12V6c0-1.1.9-2 2-2h1V1h8v3h1c1.1 0 2 .9 2 2v5.99c0 1.1-.9 2.01-2.01 2.01z"/><path d="M14 5H4c-.55 0-1 .45-1 1v6c0 .55.45 1 1 1h10c.55 0 1-.45 1-1V6c0-.55-.45-1-1-1" style="fill:#40a0ff"/><path d="M6 2v2h1V3h4v1h1V2z" style="fill:#c6c6c6"/><path d="M6 4h1v1H6zM11 4h1v1h-1z" style="fill:#052128"/></g><use xlink:href="#i" width="11" height="14"/><use xlink:href="#j" width="7" height="16"/></svg>