<?xml version="1.0" encoding="UTF-8"?>
<svg id="uuid-847505a0-62c5-453a-981b-ee95b9feb8ba" data-name="Layer 142" xmlns="http://www.w3.org/2000/svg" width="16" height="16" xmlns:xlink="http://www.w3.org/1999/xlink" viewBox="0 0 16 16">
  <defs>
    <symbol id="uuid-97fce183-7350-4905-bd8a-f22ce2cf4d0a" data-name="Gear Mask" viewBox="0 0 11 11">
      <path d="m11,0h-4c-.1,0-.22,0-.35,0-.05,0-.1,0-.15,0-.7,0-1.37.11-2,.32l-.4.08-.47.28c-.3.15-.59.32-.87.51l-.14.08-.05.06C1.01,2.51,0,4.39,0,6.5c0,.16.01.33.02.49h-.02v4.01h11V0Z"/>
    </symbol>
    <symbol id="uuid-66452883-669f-475d-b29c-5a535c91d358" data-name="Gear again" viewBox="0 0 8 8">
      <g>
        <g>
          <circle cx="4" cy="4" r="3" style="fill: #fff;"/>
          <polygon points="6 4 8 3 8 2 7 1 5 3 5 0 3 0 3 3 1 1 0 2 0 3 2 4 0 5 0 6 1 7 3 5 3 6 3 8 5 8 5 5 7 7 8 6 8 5 6 4" style="fill: #fff;"/>
          <path d="m4,2c-1.1,0-2,.9-2,2s.9,2,2,2,2-.9,2-2-.9-2-2-2Zm0,3c-.55,0-1-.45-1-1s.45-1,1-1,1,.45,1,1-.45,1-1,1Z"/>
        </g>
        <circle cx="4" cy="4" r="1"/>
      </g>
    </symbol>
    <filter id="uuid-bed1acd5-aa8a-4bae-8957-078a4b3dc8aa" x="201" y="-180" width="15" height="16.3" color-interpolation-filters="sRGB" filterUnits="userSpaceOnUse">
      <feFlood flood-color="#fff" result="bg"/>
      <feBlend in="SourceGraphic" in2="bg"/>
    </filter>
    <mask id="uuid-f669646c-f8e7-4066-af09-2e9cdf761d05" data-name="mask" x="201" y="-180" width="15" height="16.3" maskUnits="userSpaceOnUse"/>
    <filter id="uuid-6621f56b-253a-4ecf-8e43-6753fbb6900c" x="100" y="-120" width="16" height="16" color-interpolation-filters="sRGB" filterUnits="userSpaceOnUse">
      <feFlood flood-color="#fff" result="bg"/>
      <feBlend in="SourceGraphic" in2="bg"/>
    </filter>
    <mask id="uuid-57eac6ac-1b79-4a02-89ef-df08084fbfd9" data-name="mask-1" x="100" y="-120" width="16" height="16" maskUnits="userSpaceOnUse"/>
    <filter id="uuid-58676175-6d44-4471-9e1d-4986f1a9290e" x="20" y="-20" width="17" height="17" color-interpolation-filters="sRGB" filterUnits="userSpaceOnUse">
      <feFlood flood-color="#fff" result="bg"/>
      <feBlend in="SourceGraphic" in2="bg"/>
    </filter>
    <mask id="uuid-4223ea34-8e27-4ec7-ab59-fdb12627d541" data-name="mask-2" x="20" y="-20" width="17" height="17" maskUnits="userSpaceOnUse"/>
    <filter id="uuid-fde902a6-ec06-4c9b-8a92-bf8e6db87422" x="40" y="-20" width="16" height="16" color-interpolation-filters="sRGB" filterUnits="userSpaceOnUse">
      <feFlood flood-color="#fff" result="bg"/>
      <feBlend in="SourceGraphic" in2="bg"/>
    </filter>
    <mask id="uuid-387d9da9-4b4f-4ce9-aa1e-3946713362c2" data-name="mask-3" x="40" y="-20" width="16" height="16" maskUnits="userSpaceOnUse"/>
    <filter id="uuid-a69f16f1-76b5-4e04-b2ce-6d4b0e4aa680" x="60" y="-20" width="16" height="16" color-interpolation-filters="sRGB" filterUnits="userSpaceOnUse">
      <feFlood flood-color="#fff" result="bg"/>
      <feBlend in="SourceGraphic" in2="bg"/>
    </filter>
    <mask id="uuid-33afae0f-3a50-4281-b0dd-2f42bac86c89" data-name="mask-4" x="60" y="-20" width="16" height="16" maskUnits="userSpaceOnUse"/>
    <filter id="uuid-75af2b85-b853-4e93-9695-c1d5ad775aee" x="140" y="-20" width="16" height="16" color-interpolation-filters="sRGB" filterUnits="userSpaceOnUse">
      <feFlood flood-color="#fff" result="bg"/>
      <feBlend in="SourceGraphic" in2="bg"/>
    </filter>
    <mask id="uuid-834b9e5f-aa33-4c2b-a542-2e61a806fdfe" data-name="mask-5" x="140" y="-20" width="16" height="16" maskUnits="userSpaceOnUse"/>
    <filter id="uuid-01748c2a-f3aa-4f3b-9e44-5732f0a60d2e" x="160" y="-20" width="16" height="16" color-interpolation-filters="sRGB" filterUnits="userSpaceOnUse">
      <feFlood flood-color="#fff" result="bg"/>
      <feBlend in="SourceGraphic" in2="bg"/>
    </filter>
    <mask id="uuid-95a2d217-05b0-4db1-8783-9059f609cc0e" data-name="mask-6" x="160" y="-20" width="16" height="16" maskUnits="userSpaceOnUse"/>
    <filter id="uuid-ebaea0c0-197c-4cb3-97b8-2d4be96012ba" x="180" y="-20" width="16" height="16" color-interpolation-filters="sRGB" filterUnits="userSpaceOnUse">
      <feFlood flood-color="#fff" result="bg"/>
      <feBlend in="SourceGraphic" in2="bg"/>
    </filter>
    <mask id="uuid-a4fae70d-cf9c-413f-a149-d725a1e0e548" data-name="mask-7" x="180" y="-20" width="16" height="16" maskUnits="userSpaceOnUse"/>
    <filter id="uuid-f73df8e5-a98a-4ec1-8968-a6aa904f2379" x="0" y="0" width="17" height="17" color-interpolation-filters="sRGB" filterUnits="userSpaceOnUse">
      <feFlood flood-color="#fff" result="bg"/>
      <feBlend in="SourceGraphic" in2="bg"/>
    </filter>
    <mask id="uuid-d7376d02-a380-4ef0-a84a-c7e5eb4c1ce0" data-name="mask-8" x="0" y="0" width="17" height="17" maskUnits="userSpaceOnUse">
      <g style="filter: url(#uuid-f73df8e5-a98a-4ec1-8968-a6aa904f2379);">
        <use width="11" height="11" transform="translate(6 6)" xlink:href="#uuid-97fce183-7350-4905-bd8a-f22ce2cf4d0a"/>
      </g>
    </mask>
  </defs>
  <g style="mask: url(#uuid-d7376d02-a380-4ef0-a84a-c7e5eb4c1ce0);">
    <path d="m1.39,7.73c-.08.29.23.91.24,1.21-.77-.76-.81-2.44-1.62-3.25.83,0,2.03-.03,2.9-.87,1.97-.74,2.23-1.39,3.11-3.27.01,0,.02,0,.03,0l.16,1.54s.02,0,.04,0c.5-1.28.99-1.85,1.57-3.1.18,1.2-.17,1.72-.5,2.86l.02.02c.85-.62,1.82-1.12,2.89-.83,1.21-.55,1.48-1.6,2.77-2.04-1.46,1.94-.44,4.32,0,4.06-.33,1.1,0,4.88,0,4.88-.36.36-2.44-2.44-4.06,0-1.58.34-4.06,3.25-4.88,3.25,0-.81-.99-1.18-.65-.94-.97-.68-.89-1.15-.97-1.5.76.85,1.56.95,1.19.07,1.25,1.55,2.79-1.26,3.69-1.7.53-1.17.1-.89,1.27-1.6,0,0-.01-.02-.02-.03-.76.79-3.37.17-2.75,1.28-1.04-.62-3.03-.46-1.75-.46-.81,0-1.07.61-.86.9-.47-.08-.84-.34-1.22-.61-.02.3.36,1.06.45,1.34-.22-.24-.82-.98-1.02-1.23-.01,0-.02.01-.03.02Zm.68-1.48c1.46-1.33,4.43.26,4.74-2.13-.11.8-1.14-.92-2.24.74-.55.83-2.09.42-2.6,1.43,0,0,.02.01.03.02.02-.02.05-.04.07-.06Z" style="fill: #ff2020;"/>
  </g>
  <use width="8" height="8" transform="translate(8 8)" xlink:href="#uuid-66452883-669f-475d-b29c-5a535c91d358"/>
</svg>