<svg xmlns="http://www.w3.org/2000/svg" width="16" height="16"><path d="M5.34 9.35v.98H.93v-.98zm-1.63 0v6.4H2.53v-6.4zm3.38 0 .99 2.21.96-2.21h1.33l-1.59 3.17 1.62 3.23H9.03l-.99-2.25-.99 2.25H5.71l1.64-3.25-1.6-3.15h1.36Zm7.89 0v.98h-4.41v-.98zm-1.63 0v6.4h-1.18v-6.4z" style="fill:#0ff"/><path d="M0 0h3v7H0z" style="fill:#ff2020"/><path d="M3 0h3v7H3z" style="fill:#0ff"/><path d="M6 0h4v7H6z" style="fill:#a040ff"/><path d="M10 0h3v7h-3z" style="fill:#40ffa0"/><path d="M13 0h3v7h-3z" style="fill:#40a0ff"/></svg>