<svg xmlns="http://www.w3.org/2000/svg" xmlns:xlink="http://www.w3.org/1999/xlink" width="16" height="16" data-name="Layer 184"><defs><symbol id="b" data-name="( closedFolder )" viewBox="0 0 13 10"><path d="M5 0H1C.45 0 0 .45 0 1v8c0 .55.45 1 1 1h11c.55 0 1-.45 1-1V2c0-.55-.45-1-1-1H6c0-.55-.45-1-1-1" data-name="folder" style="fill:#fff"/></symbol><symbol id="d" data-name="( closedFolder_tab )" viewBox="0 0 6 2"><path d="M0 1v1h5c.55 0 1-.45 1-1s-.45-1-1-1H1C.45 0 0 .45 0 1" data-name="tab" style="fill:url(#a);isolation:isolate;opacity:.72"/></symbol><symbol id="e" data-name="-folder-closed-pink" viewBox="0 0 13 10"><g style="mask:url(#c)"><path d="M0 0h13v10H0z" style="fill:#ff13c0"/></g><use xlink:href="#d" width="6" height="2"/></symbol><linearGradient id="a" x1="-7226.14" x2="-7226.14" y1="23619.99" y2="23623.99" gradientTransform="matrix(.5 0 0 -.5 3616.07 11811.99)" gradientUnits="userSpaceOnUse"><stop offset="0"/><stop offset="1" stop-opacity=".15"/></linearGradient><mask id="c" width="13" height="10" x="0" y="0" data-name="mask" maskUnits="userSpaceOnUse"><use xlink:href="#b" width="13" height="10"/></mask></defs><use xlink:href="#e" width="13" height="10"/><path d="M3 4h13v12H3z"/><path d="M6.75 10.25v-2h-1.5v2h-1.5v-5.5h5.5v1h2v3h-2v1.5z" style="fill:#0ff"/><path d="M9 5v1h2v2.5H9V10H7V8H5v2H4V5zm.5-.5h-6v6h2v-2h1v2h3V9h2V5.5h-2z"/><path d="M10.75 12.25v-2h-1.5v-2h2v-2h-2v-1.5h6v5.5h-1.5v2z" style="fill:#0f0"/><path d="M15 5v5h-1.5v2H11v-2H9.5V8.5h2V6h-2V5zm.5-.5H9v2h2V8H9v2.5h1.5v2H14v-2h1.5z"/><path d="M9.15 15.25v-1h-2v-3h2v-1.5h2v2h2v-2h2.1v5.5z" style="fill:#e3ff00"/><path d="M15 10v5H9.4v-1h-2v-2.5h2V10h1.5v2h2.5v-2zm.5-.5h-2.6v2h-1.5v-2H8.9V11h-2v3.5h2v1h6.6z"/><path d="M3.75 15.25v-5.5h1.5v-2h2v2h2v2h-2v2h2v1.5z" style="fill:#ff2020"/><path d="M7 8v2h2v1.5H7V14h2v1H4v-5h1.5V8zm.5-.5H5v2H3.5v6h6v-2h-2V12h2V9.5h-2z"/></svg>