<svg xmlns="http://www.w3.org/2000/svg" xmlns:xlink="http://www.w3.org/1999/xlink" width="16" height="16" data-name="Layer 188"><defs><symbol id="a" data-name="( openFolder_back )" viewBox="0 0 13 11"><path d="M0 0v11h10.98c.55 0 1-.45 1-1V6c.55 0 1-.45 1-1V1c.01-.75-.39-.99-.99-1z" data-name="folder" style="fill:#fff"/></symbol><symbol id="c" data-name="( openFolder_backShadows )" viewBox="0 0 13 11"><path d="M0 0v11h11c.55 0 1-.45 1-1V6c.55 0 1-.45 1-1V1c0-.75-.41-.99-1-1z" data-name="folder_shadow" style="isolation:isolate;opacity:.3"/></symbol><symbol id="e" data-name="( openFolder_flap )" viewBox="0 0 7 16"><path d="M7 2.95c0-.6-.37-1.14-.93-1.36L0 0v14l6 2c1 0 1-1 1-1z" data-name="flap" style="fill:#fff"/></symbol><symbol id="d" data-name="( openFolder_flapShadow )" viewBox="0 0 7.91 11"><path d="M0 1.31V11h7.91V3.39C7.91.51 5.89.63 3.81.63S0 1.31 0 1.31" style="opacity:.6"/><path d="M0 0h7.91v11H0z" style="opacity:0"/></symbol><symbol id="g" data-name="-folder-back-purple" viewBox="0 0 13.02 11"><g style="mask:url(#b)"><path d="M.02 0h13v11h-13z" style="fill:#a040ff"/></g><use xlink:href="#c" width="13" height="11"/><use xlink:href="#d" width="7.91" height="11" transform="translate(.02)"/></symbol><symbol id="i" data-name="-folder-flap-purple" viewBox="0 0 7 16"><g style="mask:url(#f)"><path d="M0 0h7v16H0z" style="fill:#a040ff"/></g></symbol><mask id="b" width="13.02" height="11" x="0" y="0" data-name="mask" maskUnits="userSpaceOnUse"><use xlink:href="#a" width="13" height="11" transform="translate(.02)"/></mask><mask id="f" width="7" height="16" x="0" y="0" data-name="mask-1" maskUnits="userSpaceOnUse"><use xlink:href="#e" width="7" height="16"/></mask><linearGradient id="h" x1="123.18" x2="125.92" y1="-276.89" y2="-276.89" gradientTransform="matrix(3.78 0 0 -3.78 -465.57 -1039.51)" gradientUnits="userSpaceOnUse"><stop offset=".69"/><stop offset="1" stop-opacity="0"/></linearGradient></defs><use xlink:href="#g" width="13.02" height="11"/><path d="M6.59 13 6 12.41V13H2V3h3.41l5 5h-2L10 9.59v1.82L8.41 13z" style="opacity:1"/><path d="M9 11v-1L7 8V7h1L5 4H3v8h2v-2l2 2h1z"/><path d="M7 3h5v5H7z" style="opacity:1"/><path d="M8 4h3v3H8z"/><path d="m12.59 14-1-1h-.23l-1.24 1H5.59L9 10.59v-.17L5.59 7.01h4.83l1 1h.19c.66-.57 1.32-.86 1.96-.86 1.56 0 2.35 1.55 2.42 2.68.07.45 0 .76-.22 1.02l-.69.82.92.92V14z" style="opacity:1"/><path d="M15 10c0-1-1-3-3-1h-1l-1-1H8l2 2v1l-1 1-1 1h1.76L11 12h1l1 1h2l-2-2v-1c2.35-2.16 2 1 2 0"/><path d="M9 11v-1L7 8V7h1L5 4H3v8h2v-2l2 2h1zM8 4h3v3H8z" style="fill:#ffa040"/><path d="M15 10c0-1-1-3-3-1h-1l-1-1H8l2 2v1l-1 1-1 1h1.76L11 12h1l1 1h2l-2-2v-1c2.35-2.16 2 1 2 0" style="fill:#40a0ff"/><path d="m0 0 1 2h2.47l1.55 1.52 5.6.05L11 2v12l-.05-.77-4.64.77H0z" data-name="icon_shadow" style="fill:url(#h)"/><use xlink:href="#i" width="7" height="16"/></svg>