<svg xmlns="http://www.w3.org/2000/svg" xmlns:xlink="http://www.w3.org/1999/xlink" width="16" height="16" data-name="Layer 39 copy 7"><defs><symbol id="b" data-name="( closedFolder )" viewBox="0 0 13 10"><path d="M5 0H1C.45 0 0 .45 0 1v8c0 .55.45 1 1 1h11c.55 0 1-.45 1-1V2c0-.55-.45-1-1-1H6c0-.55-.45-1-1-1" data-name="folder" style="fill:#fff"/></symbol><symbol id="d" data-name="( closedFolder_tab )" viewBox="0 0 6 2"><path d="M0 1v1h5c.55 0 1-.45 1-1s-.45-1-1-1H1C.45 0 0 .45 0 1" data-name="tab" style="fill:url(#a);isolation:isolate;opacity:.72"/></symbol><symbol id="e" data-name="-folder-closed-orange" viewBox="0 0 13 10"><g style="mask:url(#c)"><path d="M0 0h13v10H0z" style="fill:#ff6700"/></g><use xlink:href="#d" width="6" height="2"/></symbol><linearGradient id="a" x1="-7226.14" x2="-7226.14" y1="23619.99" y2="23623.99" gradientTransform="matrix(.5 0 0 -.5 3616.07 11811.99)" gradientUnits="userSpaceOnUse"><stop offset="0"/><stop offset="1" stop-opacity=".15"/></linearGradient><mask id="c" width="13" height="10" x="0" y="0" data-name="mask" maskUnits="userSpaceOnUse"><use xlink:href="#b" width="13" height="10"/></mask></defs><use xlink:href="#e" width="13" height="10"/><g data-name="Layer 75 copy 2"><path d="M4.03 16C2.9 16 2 15.1 2 14V8c0-1.1.9-2 2-2h1V3h8v3h1c1.1 0 2 .9 2 2v5.99c0 1.1-.9 2.01-2.01 2.01z"/><path d="M14 7H4c-.55 0-1 .45-1 1v6c0 .55.45 1 1 1h10c.55 0 1-.45 1-1V8c0-.55-.45-1-1-1" style="fill:#40a0ff"/><path d="M6 4v2h1V5h4v1h1V4z" style="fill:#c6c6c6"/><path d="M6 6h1v1H6zM11 6h1v1h-1z" style="fill:#052128"/></g></svg>