<svg xmlns="http://www.w3.org/2000/svg" xmlns:xlink="http://www.w3.org/1999/xlink" width="16" height="16" data-name="Layer 187"><defs><symbol id="b" data-name="( closedFolder )" viewBox="0 0 13 10"><path d="M5 0H1C.45 0 0 .45 0 1v8c0 .55.45 1 1 1h11c.55 0 1-.45 1-1V2c0-.55-.45-1-1-1H6c0-.55-.45-1-1-1" data-name="folder" style="fill:#fff"/></symbol><symbol id="d" data-name="( closedFolder_tab )" viewBox="0 0 6 2"><path d="M0 1v1h5c.55 0 1-.45 1-1s-.45-1-1-1H1C.45 0 0 .45 0 1" data-name="tab" style="fill:url(#a);isolation:isolate;opacity:.72"/></symbol><symbol id="e" data-name="-folder-closed-purple" viewBox="0 0 13 10"><g style="mask:url(#c)"><path d="M0 0h13v10H0z" style="fill:#a040ff"/></g><use xlink:href="#d" width="6" height="2"/></symbol><linearGradient id="a" x1="-7226.14" x2="-7226.14" y1="23619.99" y2="23623.99" gradientTransform="matrix(.5 0 0 -.5 3616.07 11811.99)" gradientUnits="userSpaceOnUse"><stop offset="0"/><stop offset="1" stop-opacity=".15"/></linearGradient><mask id="c" width="13" height="10" x="0" y="0" data-name="mask" maskUnits="userSpaceOnUse"><use xlink:href="#b" width="13" height="10"/></mask></defs><use xlink:href="#e" width="13" height="10"/><path d="M6.59 15 6 14.41V15H2V5h3.41l5 5h-2L10 11.59v1.82L8.41 15z" style="opacity:1"/><path d="M9 13v-1l-2-2V9h1L5 6H3v8h2v-2l2 2h1z"/><path d="M7 5h5v5H7z" style="opacity:1"/><path d="M8 6h3v3H8z"/><path d="m12.59 16-1-1h-.23l-1.24 1H7.01v-1l2-2.41v-.17L5.6 9.01h4.83l1 1h.19c.66-.57 1.32-.86 1.96-.86 1.56 0 2.35 1.55 2.42 2.68.07.45 0 .76-.22 1.02l-.69.82.92.92V16H12.6Z" style="opacity:1"/><path d="M15 12c0-1-1-3-3-1h-1l-1-1H8l2 2v1l-1 1-1 1h1.76L11 14h1l1 1h2l-2-2v-1c2.35-2.16 2 1 2 0"/><path d="M9 13v-1l-2-2V9h1L5 6H3v8h2v-2l2 2h1zM8 6h3v3H8z" style="fill:#ffa040"/><path d="M15 12c0-1-1-3-3-1h-1l-1-1H8l2 2v1l-1 1-1 1h1.76L11 14h1l1 1h2l-2-2v-1c2.35-2.16 2 1 2 0" style="fill:#40a0ff"/></svg>